<?xml version="1.0" standalone="no"?>
<!DOCTYPE svg PUBLIC "-//W3C//DTD SVG 20010904//EN"
 "http://www.w3.org/TR/2001/REC-SVG-20010904/DTD/svg10.dtd">
<svg version="1.0" xmlns="http://www.w3.org/2000/svg"
 width="160.000000pt" height="160.000000pt" viewBox="0 0 160.000000 160.000000"
 preserveAspectRatio="xMidYMid meet">
<metadata>
Created by potrace 1.14, written by Peter Selinger 2001-2017
</metadata>
<g transform="translate(0.000000,160.000000) scale(0.100000,-0.100000)"
fill="#000000" stroke="none">
<path d="M454 1561 c-44 -27 -70 -75 -94 -172 -29 -124 -27 -365 6 -508 5 -22
8 -23 57 -18 l52 5 -60 -14 c-33 -8 -104 -24 -159 -36 -125 -27 -138 -38 -144
-113 -14 -167 78 -473 185 -620 36 -49 90 -80 124 -72 69 17 105 200 80 400
-4 31 -4 57 -1 57 3 0 27 -24 53 -54 127 -147 384 -276 552 -276 58 0 187 30
236 56 46 23 139 113 139 134 0 31 -36 51 -146 81 -175 48 -263 96 -364 198
-112 113 -134 156 -134 276 l-1 90 30 -3 c53 -5 152 -42 194 -73 23 -16 67
-62 99 -101 130 -164 217 -240 257 -224 36 13 13 76 -90 247 -68 111 -115 168
-171 209 -47 33 -69 37 -82 15 -7 -14 -14 -13 -56 5 -39 18 -45 24 -35 36 16
20 -5 19 -36 -2 -13 -9 -28 -13 -34 -10 -5 4 -15 1 -23 -6 -7 -7 -19 -14 -26
-16 -14 -3 -58 -32 -105 -69 -16 -13 -32 -23 -36 -23 -19 0 -66 254 -76 400
-12 180 -90 263 -191 201z m125 -56 c28 -57 25 -411 -2 -402 -7 2 -13 17 -13
33 -2 42 -2 41 -24 47 -11 3 -20 13 -20 22 0 11 5 15 15 12 8 -4 17 -2 20 3 4
6 -6 10 -20 10 -22 0 -25 3 -20 20 4 12 2 20 -5 20 -6 0 -8 5 -5 11 10 15 13
88 4 91 -5 2 -9 23 -10 48 -5 104 45 157 80 85z"/>
</g>
</svg>
